%TF.GenerationSoftware,KiCad,Pcbnew,8.0.6*%
%TF.CreationDate,2025-02-27T22:11:00+05:30*%
%TF.ProjectId,muse-dash-pcb,6d757365-2d64-4617-9368-2d7063622e6b,rev?*%
%TF.SameCoordinates,Original*%
%TF.FileFunction,Soldermask,Bot*%
%TF.FilePolarity,Negative*%
%FSLAX46Y46*%
G04 Gerber Fmt 4.6, Leading zero omitted, Abs format (unit mm)*
G04 Created by KiCad (PCBNEW 8.0.6) date 2025-02-27 22:11:00*
%MOMM*%
%LPD*%
G01*
G04 APERTURE LIST*
G04 Aperture macros list*
%AMRoundRect*
0 Rectangle with rounded corners*
0 $1 Rounding radius*
0 $2 $3 $4 $5 $6 $7 $8 $9 X,Y pos of 4 corners*
0 Add a 4 corners polygon primitive as box body*
4,1,4,$2,$3,$4,$5,$6,$7,$8,$9,$2,$3,0*
0 Add four circle primitives for the rounded corners*
1,1,$1+$1,$2,$3*
1,1,$1+$1,$4,$5*
1,1,$1+$1,$6,$7*
1,1,$1+$1,$8,$9*
0 Add four rect primitives between the rounded corners*
20,1,$1+$1,$2,$3,$4,$5,0*
20,1,$1+$1,$4,$5,$6,$7,0*
20,1,$1+$1,$6,$7,$8,$9,0*
20,1,$1+$1,$8,$9,$2,$3,0*%
G04 Aperture macros list end*
%ADD10C,1.700000*%
%ADD11C,4.000000*%
%ADD12C,2.200000*%
%ADD13C,2.100000*%
%ADD14R,1.700000X1.700000*%
%ADD15O,1.700000X1.700000*%
%ADD16C,1.000000*%
%ADD17RoundRect,0.090000X0.660000X0.360000X-0.660000X0.360000X-0.660000X-0.360000X0.660000X-0.360000X0*%
%ADD18RoundRect,0.250000X0.450000X-0.325000X0.450000X0.325000X-0.450000X0.325000X-0.450000X-0.325000X0*%
G04 APERTURE END LIST*
D10*
%TO.C,SW1*%
X157638750Y-89058750D03*
D11*
X162718750Y-89058750D03*
D10*
X167798750Y-89058750D03*
D12*
X165258750Y-83978750D03*
X158908750Y-86518750D03*
%TD*%
D13*
%TO.C,H1*%
X156684000Y-56981000D03*
%TD*%
%TO.C,H2*%
X233900000Y-56600000D03*
%TD*%
%TO.C,H3*%
X156718000Y-99568000D03*
%TD*%
D14*
%TO.C,J1*%
X190601600Y-75844400D03*
D15*
X188061600Y-75844400D03*
X190601600Y-73304400D03*
X188061600Y-73304400D03*
X190601600Y-70764400D03*
X188061600Y-70764400D03*
%TD*%
D10*
%TO.C,SW3*%
X202723750Y-89058750D03*
D11*
X207803750Y-89058750D03*
D10*
X212883750Y-89058750D03*
D12*
X210343750Y-83978750D03*
X203993750Y-86518750D03*
%TD*%
D10*
%TO.C,SW4*%
X222567500Y-89058750D03*
D11*
X227647500Y-89058750D03*
D10*
X232727500Y-89058750D03*
D12*
X230187500Y-83978750D03*
X223837500Y-86518750D03*
%TD*%
D13*
%TO.C,H4*%
X233934000Y-99568000D03*
%TD*%
D10*
%TO.C,SW2*%
X177482500Y-89058750D03*
D11*
X182562500Y-89058750D03*
D10*
X187642500Y-89058750D03*
D12*
X185102500Y-83978750D03*
X178752500Y-86518750D03*
%TD*%
D16*
%TO.C,USB1*%
X175700000Y-58300000D03*
X171300000Y-58300000D03*
%TD*%
D17*
%TO.C,D5*%
X162661600Y-71628000D03*
X162661600Y-74928000D03*
X157761600Y-74928000D03*
X157761600Y-71628000D03*
%TD*%
%TO.C,D6*%
X232664000Y-71577200D03*
X232664000Y-74877200D03*
X227764000Y-74877200D03*
X227764000Y-71577200D03*
%TD*%
D18*
%TO.C,D2*%
X191293750Y-90156250D03*
X191293750Y-88106250D03*
%TD*%
%TO.C,D1*%
X171450000Y-90156250D03*
X171450000Y-88106250D03*
%TD*%
%TO.C,D3*%
X216693750Y-90156250D03*
X216693750Y-88106250D03*
%TD*%
%TO.C,D4*%
X235712000Y-89680000D03*
X235712000Y-87630000D03*
%TD*%
M02*
