%TF.GenerationSoftware,KiCad,Pcbnew,8.0.6*%
%TF.CreationDate,2025-02-27T22:11:00+05:30*%
%TF.ProjectId,muse-dash-pcb,6d757365-2d64-4617-9368-2d7063622e6b,rev?*%
%TF.SameCoordinates,Original*%
%TF.FileFunction,Legend,Top*%
%TF.FilePolarity,Positive*%
%FSLAX46Y46*%
G04 Gerber Fmt 4.6, Leading zero omitted, Abs format (unit mm)*
G04 Created by KiCad (PCBNEW 8.0.6) date 2025-02-27 22:11:00*
%MOMM*%
%LPD*%
G01*
G04 APERTURE LIST*
%ADD10C,0.150000*%
%ADD11C,0.120000*%
G04 APERTURE END LIST*
D10*
X220178333Y-74495819D02*
X219845000Y-74019628D01*
X219606905Y-74495819D02*
X219606905Y-73495819D01*
X219606905Y-73495819D02*
X219987857Y-73495819D01*
X219987857Y-73495819D02*
X220083095Y-73543438D01*
X220083095Y-73543438D02*
X220130714Y-73591057D01*
X220130714Y-73591057D02*
X220178333Y-73686295D01*
X220178333Y-73686295D02*
X220178333Y-73829152D01*
X220178333Y-73829152D02*
X220130714Y-73924390D01*
X220130714Y-73924390D02*
X220083095Y-73972009D01*
X220083095Y-73972009D02*
X219987857Y-74019628D01*
X219987857Y-74019628D02*
X219606905Y-74019628D01*
X220511667Y-73495819D02*
X221130714Y-73495819D01*
X221130714Y-73495819D02*
X220797381Y-73876771D01*
X220797381Y-73876771D02*
X220940238Y-73876771D01*
X220940238Y-73876771D02*
X221035476Y-73924390D01*
X221035476Y-73924390D02*
X221083095Y-73972009D01*
X221083095Y-73972009D02*
X221130714Y-74067247D01*
X221130714Y-74067247D02*
X221130714Y-74305342D01*
X221130714Y-74305342D02*
X221083095Y-74400580D01*
X221083095Y-74400580D02*
X221035476Y-74448200D01*
X221035476Y-74448200D02*
X220940238Y-74495819D01*
X220940238Y-74495819D02*
X220654524Y-74495819D01*
X220654524Y-74495819D02*
X220559286Y-74448200D01*
X220559286Y-74448200D02*
X220511667Y-74400580D01*
X161385417Y-81591950D02*
X161528274Y-81639569D01*
X161528274Y-81639569D02*
X161766369Y-81639569D01*
X161766369Y-81639569D02*
X161861607Y-81591950D01*
X161861607Y-81591950D02*
X161909226Y-81544330D01*
X161909226Y-81544330D02*
X161956845Y-81449092D01*
X161956845Y-81449092D02*
X161956845Y-81353854D01*
X161956845Y-81353854D02*
X161909226Y-81258616D01*
X161909226Y-81258616D02*
X161861607Y-81210997D01*
X161861607Y-81210997D02*
X161766369Y-81163378D01*
X161766369Y-81163378D02*
X161575893Y-81115759D01*
X161575893Y-81115759D02*
X161480655Y-81068140D01*
X161480655Y-81068140D02*
X161433036Y-81020521D01*
X161433036Y-81020521D02*
X161385417Y-80925283D01*
X161385417Y-80925283D02*
X161385417Y-80830045D01*
X161385417Y-80830045D02*
X161433036Y-80734807D01*
X161433036Y-80734807D02*
X161480655Y-80687188D01*
X161480655Y-80687188D02*
X161575893Y-80639569D01*
X161575893Y-80639569D02*
X161813988Y-80639569D01*
X161813988Y-80639569D02*
X161956845Y-80687188D01*
X162290179Y-80639569D02*
X162528274Y-81639569D01*
X162528274Y-81639569D02*
X162718750Y-80925283D01*
X162718750Y-80925283D02*
X162909226Y-81639569D01*
X162909226Y-81639569D02*
X163147322Y-80639569D01*
X164052083Y-81639569D02*
X163480655Y-81639569D01*
X163766369Y-81639569D02*
X163766369Y-80639569D01*
X163766369Y-80639569D02*
X163671131Y-80782426D01*
X163671131Y-80782426D02*
X163575893Y-80877664D01*
X163575893Y-80877664D02*
X163480655Y-80925283D01*
X194492080Y-68022916D02*
X194539700Y-68070535D01*
X194539700Y-68070535D02*
X194587319Y-68213392D01*
X194587319Y-68213392D02*
X194587319Y-68308630D01*
X194587319Y-68308630D02*
X194539700Y-68451487D01*
X194539700Y-68451487D02*
X194444461Y-68546725D01*
X194444461Y-68546725D02*
X194349223Y-68594344D01*
X194349223Y-68594344D02*
X194158747Y-68641963D01*
X194158747Y-68641963D02*
X194015890Y-68641963D01*
X194015890Y-68641963D02*
X193825414Y-68594344D01*
X193825414Y-68594344D02*
X193730176Y-68546725D01*
X193730176Y-68546725D02*
X193634938Y-68451487D01*
X193634938Y-68451487D02*
X193587319Y-68308630D01*
X193587319Y-68308630D02*
X193587319Y-68213392D01*
X193587319Y-68213392D02*
X193634938Y-68070535D01*
X193634938Y-68070535D02*
X193682557Y-68022916D01*
X193587319Y-67165773D02*
X193587319Y-67356249D01*
X193587319Y-67356249D02*
X193634938Y-67451487D01*
X193634938Y-67451487D02*
X193682557Y-67499106D01*
X193682557Y-67499106D02*
X193825414Y-67594344D01*
X193825414Y-67594344D02*
X194015890Y-67641963D01*
X194015890Y-67641963D02*
X194396842Y-67641963D01*
X194396842Y-67641963D02*
X194492080Y-67594344D01*
X194492080Y-67594344D02*
X194539700Y-67546725D01*
X194539700Y-67546725D02*
X194587319Y-67451487D01*
X194587319Y-67451487D02*
X194587319Y-67261011D01*
X194587319Y-67261011D02*
X194539700Y-67165773D01*
X194539700Y-67165773D02*
X194492080Y-67118154D01*
X194492080Y-67118154D02*
X194396842Y-67070535D01*
X194396842Y-67070535D02*
X194158747Y-67070535D01*
X194158747Y-67070535D02*
X194063509Y-67118154D01*
X194063509Y-67118154D02*
X194015890Y-67165773D01*
X194015890Y-67165773D02*
X193968271Y-67261011D01*
X193968271Y-67261011D02*
X193968271Y-67451487D01*
X193968271Y-67451487D02*
X194015890Y-67546725D01*
X194015890Y-67546725D02*
X194063509Y-67594344D01*
X194063509Y-67594344D02*
X194158747Y-67641963D01*
X192231180Y-64530266D02*
X192278800Y-64577885D01*
X192278800Y-64577885D02*
X192326419Y-64720742D01*
X192326419Y-64720742D02*
X192326419Y-64815980D01*
X192326419Y-64815980D02*
X192278800Y-64958837D01*
X192278800Y-64958837D02*
X192183561Y-65054075D01*
X192183561Y-65054075D02*
X192088323Y-65101694D01*
X192088323Y-65101694D02*
X191897847Y-65149313D01*
X191897847Y-65149313D02*
X191754990Y-65149313D01*
X191754990Y-65149313D02*
X191564514Y-65101694D01*
X191564514Y-65101694D02*
X191469276Y-65054075D01*
X191469276Y-65054075D02*
X191374038Y-64958837D01*
X191374038Y-64958837D02*
X191326419Y-64815980D01*
X191326419Y-64815980D02*
X191326419Y-64720742D01*
X191326419Y-64720742D02*
X191374038Y-64577885D01*
X191374038Y-64577885D02*
X191421657Y-64530266D01*
X191326419Y-64196932D02*
X191326419Y-63577885D01*
X191326419Y-63577885D02*
X191707371Y-63911218D01*
X191707371Y-63911218D02*
X191707371Y-63768361D01*
X191707371Y-63768361D02*
X191754990Y-63673123D01*
X191754990Y-63673123D02*
X191802609Y-63625504D01*
X191802609Y-63625504D02*
X191897847Y-63577885D01*
X191897847Y-63577885D02*
X192135942Y-63577885D01*
X192135942Y-63577885D02*
X192231180Y-63625504D01*
X192231180Y-63625504D02*
X192278800Y-63673123D01*
X192278800Y-63673123D02*
X192326419Y-63768361D01*
X192326419Y-63768361D02*
X192326419Y-64054075D01*
X192326419Y-64054075D02*
X192278800Y-64149313D01*
X192278800Y-64149313D02*
X192231180Y-64196932D01*
X175924380Y-71032666D02*
X175972000Y-71080285D01*
X175972000Y-71080285D02*
X176019619Y-71223142D01*
X176019619Y-71223142D02*
X176019619Y-71318380D01*
X176019619Y-71318380D02*
X175972000Y-71461237D01*
X175972000Y-71461237D02*
X175876761Y-71556475D01*
X175876761Y-71556475D02*
X175781523Y-71604094D01*
X175781523Y-71604094D02*
X175591047Y-71651713D01*
X175591047Y-71651713D02*
X175448190Y-71651713D01*
X175448190Y-71651713D02*
X175257714Y-71604094D01*
X175257714Y-71604094D02*
X175162476Y-71556475D01*
X175162476Y-71556475D02*
X175067238Y-71461237D01*
X175067238Y-71461237D02*
X175019619Y-71318380D01*
X175019619Y-71318380D02*
X175019619Y-71223142D01*
X175019619Y-71223142D02*
X175067238Y-71080285D01*
X175067238Y-71080285D02*
X175114857Y-71032666D01*
X176019619Y-70556475D02*
X176019619Y-70365999D01*
X176019619Y-70365999D02*
X175972000Y-70270761D01*
X175972000Y-70270761D02*
X175924380Y-70223142D01*
X175924380Y-70223142D02*
X175781523Y-70127904D01*
X175781523Y-70127904D02*
X175591047Y-70080285D01*
X175591047Y-70080285D02*
X175210095Y-70080285D01*
X175210095Y-70080285D02*
X175114857Y-70127904D01*
X175114857Y-70127904D02*
X175067238Y-70175523D01*
X175067238Y-70175523D02*
X175019619Y-70270761D01*
X175019619Y-70270761D02*
X175019619Y-70461237D01*
X175019619Y-70461237D02*
X175067238Y-70556475D01*
X175067238Y-70556475D02*
X175114857Y-70604094D01*
X175114857Y-70604094D02*
X175210095Y-70651713D01*
X175210095Y-70651713D02*
X175448190Y-70651713D01*
X175448190Y-70651713D02*
X175543428Y-70604094D01*
X175543428Y-70604094D02*
X175591047Y-70556475D01*
X175591047Y-70556475D02*
X175638666Y-70461237D01*
X175638666Y-70461237D02*
X175638666Y-70270761D01*
X175638666Y-70270761D02*
X175591047Y-70175523D01*
X175591047Y-70175523D02*
X175543428Y-70127904D01*
X175543428Y-70127904D02*
X175448190Y-70080285D01*
X197920780Y-64479466D02*
X197968400Y-64527085D01*
X197968400Y-64527085D02*
X198016019Y-64669942D01*
X198016019Y-64669942D02*
X198016019Y-64765180D01*
X198016019Y-64765180D02*
X197968400Y-64908037D01*
X197968400Y-64908037D02*
X197873161Y-65003275D01*
X197873161Y-65003275D02*
X197777923Y-65050894D01*
X197777923Y-65050894D02*
X197587447Y-65098513D01*
X197587447Y-65098513D02*
X197444590Y-65098513D01*
X197444590Y-65098513D02*
X197254114Y-65050894D01*
X197254114Y-65050894D02*
X197158876Y-65003275D01*
X197158876Y-65003275D02*
X197063638Y-64908037D01*
X197063638Y-64908037D02*
X197016019Y-64765180D01*
X197016019Y-64765180D02*
X197016019Y-64669942D01*
X197016019Y-64669942D02*
X197063638Y-64527085D01*
X197063638Y-64527085D02*
X197111257Y-64479466D01*
X197111257Y-64098513D02*
X197063638Y-64050894D01*
X197063638Y-64050894D02*
X197016019Y-63955656D01*
X197016019Y-63955656D02*
X197016019Y-63717561D01*
X197016019Y-63717561D02*
X197063638Y-63622323D01*
X197063638Y-63622323D02*
X197111257Y-63574704D01*
X197111257Y-63574704D02*
X197206495Y-63527085D01*
X197206495Y-63527085D02*
X197301733Y-63527085D01*
X197301733Y-63527085D02*
X197444590Y-63574704D01*
X197444590Y-63574704D02*
X198016019Y-64146132D01*
X198016019Y-64146132D02*
X198016019Y-63527085D01*
X156049095Y-60864819D02*
X156049095Y-59864819D01*
X156049095Y-60341009D02*
X156620523Y-60341009D01*
X156620523Y-60864819D02*
X156620523Y-59864819D01*
X157620523Y-60864819D02*
X157049095Y-60864819D01*
X157334809Y-60864819D02*
X157334809Y-59864819D01*
X157334809Y-59864819D02*
X157239571Y-60007676D01*
X157239571Y-60007676D02*
X157144333Y-60102914D01*
X157144333Y-60102914D02*
X157049095Y-60150533D01*
X169618819Y-67857666D02*
X169142628Y-68190999D01*
X169618819Y-68429094D02*
X168618819Y-68429094D01*
X168618819Y-68429094D02*
X168618819Y-68048142D01*
X168618819Y-68048142D02*
X168666438Y-67952904D01*
X168666438Y-67952904D02*
X168714057Y-67905285D01*
X168714057Y-67905285D02*
X168809295Y-67857666D01*
X168809295Y-67857666D02*
X168952152Y-67857666D01*
X168952152Y-67857666D02*
X169047390Y-67905285D01*
X169047390Y-67905285D02*
X169095009Y-67952904D01*
X169095009Y-67952904D02*
X169142628Y-68048142D01*
X169142628Y-68048142D02*
X169142628Y-68429094D01*
X168714057Y-67476713D02*
X168666438Y-67429094D01*
X168666438Y-67429094D02*
X168618819Y-67333856D01*
X168618819Y-67333856D02*
X168618819Y-67095761D01*
X168618819Y-67095761D02*
X168666438Y-67000523D01*
X168666438Y-67000523D02*
X168714057Y-66952904D01*
X168714057Y-66952904D02*
X168809295Y-66905285D01*
X168809295Y-66905285D02*
X168904533Y-66905285D01*
X168904533Y-66905285D02*
X169047390Y-66952904D01*
X169047390Y-66952904D02*
X169618819Y-67524332D01*
X169618819Y-67524332D02*
X169618819Y-66905285D01*
X233138095Y-60229819D02*
X233138095Y-59229819D01*
X233138095Y-59706009D02*
X233709523Y-59706009D01*
X233709523Y-60229819D02*
X233709523Y-59229819D01*
X234138095Y-59325057D02*
X234185714Y-59277438D01*
X234185714Y-59277438D02*
X234280952Y-59229819D01*
X234280952Y-59229819D02*
X234519047Y-59229819D01*
X234519047Y-59229819D02*
X234614285Y-59277438D01*
X234614285Y-59277438D02*
X234661904Y-59325057D01*
X234661904Y-59325057D02*
X234709523Y-59420295D01*
X234709523Y-59420295D02*
X234709523Y-59515533D01*
X234709523Y-59515533D02*
X234661904Y-59658390D01*
X234661904Y-59658390D02*
X234090476Y-60229819D01*
X234090476Y-60229819D02*
X234709523Y-60229819D01*
X176602819Y-67841666D02*
X176126628Y-68174999D01*
X176602819Y-68413094D02*
X175602819Y-68413094D01*
X175602819Y-68413094D02*
X175602819Y-68032142D01*
X175602819Y-68032142D02*
X175650438Y-67936904D01*
X175650438Y-67936904D02*
X175698057Y-67889285D01*
X175698057Y-67889285D02*
X175793295Y-67841666D01*
X175793295Y-67841666D02*
X175936152Y-67841666D01*
X175936152Y-67841666D02*
X176031390Y-67889285D01*
X176031390Y-67889285D02*
X176079009Y-67936904D01*
X176079009Y-67936904D02*
X176126628Y-68032142D01*
X176126628Y-68032142D02*
X176126628Y-68413094D01*
X176602819Y-66889285D02*
X176602819Y-67460713D01*
X176602819Y-67174999D02*
X175602819Y-67174999D01*
X175602819Y-67174999D02*
X175745676Y-67270237D01*
X175745676Y-67270237D02*
X175840914Y-67365475D01*
X175840914Y-67365475D02*
X175888533Y-67460713D01*
X190430209Y-62050228D02*
X190430209Y-62526419D01*
X190096876Y-61526419D02*
X190430209Y-62050228D01*
X190430209Y-62050228D02*
X190763542Y-61526419D01*
X191620685Y-62526419D02*
X191049257Y-62526419D01*
X191334971Y-62526419D02*
X191334971Y-61526419D01*
X191334971Y-61526419D02*
X191239733Y-61669276D01*
X191239733Y-61669276D02*
X191144495Y-61764514D01*
X191144495Y-61764514D02*
X191049257Y-61812133D01*
X216108330Y-67710416D02*
X216155950Y-67758035D01*
X216155950Y-67758035D02*
X216203569Y-67900892D01*
X216203569Y-67900892D02*
X216203569Y-67996130D01*
X216203569Y-67996130D02*
X216155950Y-68138987D01*
X216155950Y-68138987D02*
X216060711Y-68234225D01*
X216060711Y-68234225D02*
X215965473Y-68281844D01*
X215965473Y-68281844D02*
X215774997Y-68329463D01*
X215774997Y-68329463D02*
X215632140Y-68329463D01*
X215632140Y-68329463D02*
X215441664Y-68281844D01*
X215441664Y-68281844D02*
X215346426Y-68234225D01*
X215346426Y-68234225D02*
X215251188Y-68138987D01*
X215251188Y-68138987D02*
X215203569Y-67996130D01*
X215203569Y-67996130D02*
X215203569Y-67900892D01*
X215203569Y-67900892D02*
X215251188Y-67758035D01*
X215251188Y-67758035D02*
X215298807Y-67710416D01*
X215203569Y-67377082D02*
X215203569Y-66710416D01*
X215203569Y-66710416D02*
X216203569Y-67138987D01*
X173587580Y-71134266D02*
X173635200Y-71181885D01*
X173635200Y-71181885D02*
X173682819Y-71324742D01*
X173682819Y-71324742D02*
X173682819Y-71419980D01*
X173682819Y-71419980D02*
X173635200Y-71562837D01*
X173635200Y-71562837D02*
X173539961Y-71658075D01*
X173539961Y-71658075D02*
X173444723Y-71705694D01*
X173444723Y-71705694D02*
X173254247Y-71753313D01*
X173254247Y-71753313D02*
X173111390Y-71753313D01*
X173111390Y-71753313D02*
X172920914Y-71705694D01*
X172920914Y-71705694D02*
X172825676Y-71658075D01*
X172825676Y-71658075D02*
X172730438Y-71562837D01*
X172730438Y-71562837D02*
X172682819Y-71419980D01*
X172682819Y-71419980D02*
X172682819Y-71324742D01*
X172682819Y-71324742D02*
X172730438Y-71181885D01*
X172730438Y-71181885D02*
X172778057Y-71134266D01*
X173111390Y-70562837D02*
X173063771Y-70658075D01*
X173063771Y-70658075D02*
X173016152Y-70705694D01*
X173016152Y-70705694D02*
X172920914Y-70753313D01*
X172920914Y-70753313D02*
X172873295Y-70753313D01*
X172873295Y-70753313D02*
X172778057Y-70705694D01*
X172778057Y-70705694D02*
X172730438Y-70658075D01*
X172730438Y-70658075D02*
X172682819Y-70562837D01*
X172682819Y-70562837D02*
X172682819Y-70372361D01*
X172682819Y-70372361D02*
X172730438Y-70277123D01*
X172730438Y-70277123D02*
X172778057Y-70229504D01*
X172778057Y-70229504D02*
X172873295Y-70181885D01*
X172873295Y-70181885D02*
X172920914Y-70181885D01*
X172920914Y-70181885D02*
X173016152Y-70229504D01*
X173016152Y-70229504D02*
X173063771Y-70277123D01*
X173063771Y-70277123D02*
X173111390Y-70372361D01*
X173111390Y-70372361D02*
X173111390Y-70562837D01*
X173111390Y-70562837D02*
X173159009Y-70658075D01*
X173159009Y-70658075D02*
X173206628Y-70705694D01*
X173206628Y-70705694D02*
X173301866Y-70753313D01*
X173301866Y-70753313D02*
X173492342Y-70753313D01*
X173492342Y-70753313D02*
X173587580Y-70705694D01*
X173587580Y-70705694D02*
X173635200Y-70658075D01*
X173635200Y-70658075D02*
X173682819Y-70562837D01*
X173682819Y-70562837D02*
X173682819Y-70372361D01*
X173682819Y-70372361D02*
X173635200Y-70277123D01*
X173635200Y-70277123D02*
X173587580Y-70229504D01*
X173587580Y-70229504D02*
X173492342Y-70181885D01*
X173492342Y-70181885D02*
X173301866Y-70181885D01*
X173301866Y-70181885D02*
X173206628Y-70229504D01*
X173206628Y-70229504D02*
X173159009Y-70277123D01*
X173159009Y-70277123D02*
X173111390Y-70372361D01*
X159512095Y-100276819D02*
X159512095Y-99276819D01*
X159512095Y-99753009D02*
X160083523Y-99753009D01*
X160083523Y-100276819D02*
X160083523Y-99276819D01*
X160464476Y-99276819D02*
X161083523Y-99276819D01*
X161083523Y-99276819D02*
X160750190Y-99657771D01*
X160750190Y-99657771D02*
X160893047Y-99657771D01*
X160893047Y-99657771D02*
X160988285Y-99705390D01*
X160988285Y-99705390D02*
X161035904Y-99753009D01*
X161035904Y-99753009D02*
X161083523Y-99848247D01*
X161083523Y-99848247D02*
X161083523Y-100086342D01*
X161083523Y-100086342D02*
X161035904Y-100181580D01*
X161035904Y-100181580D02*
X160988285Y-100229200D01*
X160988285Y-100229200D02*
X160893047Y-100276819D01*
X160893047Y-100276819D02*
X160607333Y-100276819D01*
X160607333Y-100276819D02*
X160512095Y-100229200D01*
X160512095Y-100229200D02*
X160464476Y-100181580D01*
X201833333Y-55159580D02*
X201785714Y-55207200D01*
X201785714Y-55207200D02*
X201642857Y-55254819D01*
X201642857Y-55254819D02*
X201547619Y-55254819D01*
X201547619Y-55254819D02*
X201404762Y-55207200D01*
X201404762Y-55207200D02*
X201309524Y-55111961D01*
X201309524Y-55111961D02*
X201261905Y-55016723D01*
X201261905Y-55016723D02*
X201214286Y-54826247D01*
X201214286Y-54826247D02*
X201214286Y-54683390D01*
X201214286Y-54683390D02*
X201261905Y-54492914D01*
X201261905Y-54492914D02*
X201309524Y-54397676D01*
X201309524Y-54397676D02*
X201404762Y-54302438D01*
X201404762Y-54302438D02*
X201547619Y-54254819D01*
X201547619Y-54254819D02*
X201642857Y-54254819D01*
X201642857Y-54254819D02*
X201785714Y-54302438D01*
X201785714Y-54302438D02*
X201833333Y-54350057D01*
X202785714Y-55254819D02*
X202214286Y-55254819D01*
X202500000Y-55254819D02*
X202500000Y-54254819D01*
X202500000Y-54254819D02*
X202404762Y-54397676D01*
X202404762Y-54397676D02*
X202309524Y-54492914D01*
X202309524Y-54492914D02*
X202214286Y-54540533D01*
X188998266Y-77629219D02*
X188998266Y-78343504D01*
X188998266Y-78343504D02*
X188950647Y-78486361D01*
X188950647Y-78486361D02*
X188855409Y-78581600D01*
X188855409Y-78581600D02*
X188712552Y-78629219D01*
X188712552Y-78629219D02*
X188617314Y-78629219D01*
X189998266Y-78629219D02*
X189426838Y-78629219D01*
X189712552Y-78629219D02*
X189712552Y-77629219D01*
X189712552Y-77629219D02*
X189617314Y-77772076D01*
X189617314Y-77772076D02*
X189522076Y-77867314D01*
X189522076Y-77867314D02*
X189426838Y-77914933D01*
X206470417Y-81591950D02*
X206613274Y-81639569D01*
X206613274Y-81639569D02*
X206851369Y-81639569D01*
X206851369Y-81639569D02*
X206946607Y-81591950D01*
X206946607Y-81591950D02*
X206994226Y-81544330D01*
X206994226Y-81544330D02*
X207041845Y-81449092D01*
X207041845Y-81449092D02*
X207041845Y-81353854D01*
X207041845Y-81353854D02*
X206994226Y-81258616D01*
X206994226Y-81258616D02*
X206946607Y-81210997D01*
X206946607Y-81210997D02*
X206851369Y-81163378D01*
X206851369Y-81163378D02*
X206660893Y-81115759D01*
X206660893Y-81115759D02*
X206565655Y-81068140D01*
X206565655Y-81068140D02*
X206518036Y-81020521D01*
X206518036Y-81020521D02*
X206470417Y-80925283D01*
X206470417Y-80925283D02*
X206470417Y-80830045D01*
X206470417Y-80830045D02*
X206518036Y-80734807D01*
X206518036Y-80734807D02*
X206565655Y-80687188D01*
X206565655Y-80687188D02*
X206660893Y-80639569D01*
X206660893Y-80639569D02*
X206898988Y-80639569D01*
X206898988Y-80639569D02*
X207041845Y-80687188D01*
X207375179Y-80639569D02*
X207613274Y-81639569D01*
X207613274Y-81639569D02*
X207803750Y-80925283D01*
X207803750Y-80925283D02*
X207994226Y-81639569D01*
X207994226Y-81639569D02*
X208232322Y-80639569D01*
X208518036Y-80639569D02*
X209137083Y-80639569D01*
X209137083Y-80639569D02*
X208803750Y-81020521D01*
X208803750Y-81020521D02*
X208946607Y-81020521D01*
X208946607Y-81020521D02*
X209041845Y-81068140D01*
X209041845Y-81068140D02*
X209089464Y-81115759D01*
X209089464Y-81115759D02*
X209137083Y-81210997D01*
X209137083Y-81210997D02*
X209137083Y-81449092D01*
X209137083Y-81449092D02*
X209089464Y-81544330D01*
X209089464Y-81544330D02*
X209041845Y-81591950D01*
X209041845Y-81591950D02*
X208946607Y-81639569D01*
X208946607Y-81639569D02*
X208660893Y-81639569D01*
X208660893Y-81639569D02*
X208565655Y-81591950D01*
X208565655Y-81591950D02*
X208518036Y-81544330D01*
X226314167Y-81591950D02*
X226457024Y-81639569D01*
X226457024Y-81639569D02*
X226695119Y-81639569D01*
X226695119Y-81639569D02*
X226790357Y-81591950D01*
X226790357Y-81591950D02*
X226837976Y-81544330D01*
X226837976Y-81544330D02*
X226885595Y-81449092D01*
X226885595Y-81449092D02*
X226885595Y-81353854D01*
X226885595Y-81353854D02*
X226837976Y-81258616D01*
X226837976Y-81258616D02*
X226790357Y-81210997D01*
X226790357Y-81210997D02*
X226695119Y-81163378D01*
X226695119Y-81163378D02*
X226504643Y-81115759D01*
X226504643Y-81115759D02*
X226409405Y-81068140D01*
X226409405Y-81068140D02*
X226361786Y-81020521D01*
X226361786Y-81020521D02*
X226314167Y-80925283D01*
X226314167Y-80925283D02*
X226314167Y-80830045D01*
X226314167Y-80830045D02*
X226361786Y-80734807D01*
X226361786Y-80734807D02*
X226409405Y-80687188D01*
X226409405Y-80687188D02*
X226504643Y-80639569D01*
X226504643Y-80639569D02*
X226742738Y-80639569D01*
X226742738Y-80639569D02*
X226885595Y-80687188D01*
X227218929Y-80639569D02*
X227457024Y-81639569D01*
X227457024Y-81639569D02*
X227647500Y-80925283D01*
X227647500Y-80925283D02*
X227837976Y-81639569D01*
X227837976Y-81639569D02*
X228076072Y-80639569D01*
X228885595Y-80972902D02*
X228885595Y-81639569D01*
X228647500Y-80591950D02*
X228409405Y-81306235D01*
X228409405Y-81306235D02*
X229028452Y-81306235D01*
X222307200Y-61964582D02*
X222354819Y-61821725D01*
X222354819Y-61821725D02*
X222354819Y-61583630D01*
X222354819Y-61583630D02*
X222307200Y-61488392D01*
X222307200Y-61488392D02*
X222259580Y-61440773D01*
X222259580Y-61440773D02*
X222164342Y-61393154D01*
X222164342Y-61393154D02*
X222069104Y-61393154D01*
X222069104Y-61393154D02*
X221973866Y-61440773D01*
X221973866Y-61440773D02*
X221926247Y-61488392D01*
X221926247Y-61488392D02*
X221878628Y-61583630D01*
X221878628Y-61583630D02*
X221831009Y-61774106D01*
X221831009Y-61774106D02*
X221783390Y-61869344D01*
X221783390Y-61869344D02*
X221735771Y-61916963D01*
X221735771Y-61916963D02*
X221640533Y-61964582D01*
X221640533Y-61964582D02*
X221545295Y-61964582D01*
X221545295Y-61964582D02*
X221450057Y-61916963D01*
X221450057Y-61916963D02*
X221402438Y-61869344D01*
X221402438Y-61869344D02*
X221354819Y-61774106D01*
X221354819Y-61774106D02*
X221354819Y-61536011D01*
X221354819Y-61536011D02*
X221402438Y-61393154D01*
X221354819Y-61059820D02*
X222354819Y-60821725D01*
X222354819Y-60821725D02*
X221640533Y-60631249D01*
X221640533Y-60631249D02*
X222354819Y-60440773D01*
X222354819Y-60440773D02*
X221354819Y-60202678D01*
X221354819Y-59631249D02*
X221354819Y-59536011D01*
X221354819Y-59536011D02*
X221402438Y-59440773D01*
X221402438Y-59440773D02*
X221450057Y-59393154D01*
X221450057Y-59393154D02*
X221545295Y-59345535D01*
X221545295Y-59345535D02*
X221735771Y-59297916D01*
X221735771Y-59297916D02*
X221973866Y-59297916D01*
X221973866Y-59297916D02*
X222164342Y-59345535D01*
X222164342Y-59345535D02*
X222259580Y-59393154D01*
X222259580Y-59393154D02*
X222307200Y-59440773D01*
X222307200Y-59440773D02*
X222354819Y-59536011D01*
X222354819Y-59536011D02*
X222354819Y-59631249D01*
X222354819Y-59631249D02*
X222307200Y-59726487D01*
X222307200Y-59726487D02*
X222259580Y-59774106D01*
X222259580Y-59774106D02*
X222164342Y-59821725D01*
X222164342Y-59821725D02*
X221973866Y-59869344D01*
X221973866Y-59869344D02*
X221735771Y-59869344D01*
X221735771Y-59869344D02*
X221545295Y-59821725D01*
X221545295Y-59821725D02*
X221450057Y-59774106D01*
X221450057Y-59774106D02*
X221402438Y-59726487D01*
X221402438Y-59726487D02*
X221354819Y-59631249D01*
X229489095Y-100149819D02*
X229489095Y-99149819D01*
X229489095Y-99626009D02*
X230060523Y-99626009D01*
X230060523Y-100149819D02*
X230060523Y-99149819D01*
X230965285Y-99483152D02*
X230965285Y-100149819D01*
X230727190Y-99102200D02*
X230489095Y-99816485D01*
X230489095Y-99816485D02*
X231108142Y-99816485D01*
X164777009Y-73231333D02*
X164777009Y-73564666D01*
X165300819Y-73564666D02*
X164300819Y-73564666D01*
X164300819Y-73564666D02*
X164300819Y-73088476D01*
X165300819Y-72183714D02*
X165300819Y-72755142D01*
X165300819Y-72469428D02*
X164300819Y-72469428D01*
X164300819Y-72469428D02*
X164443676Y-72564666D01*
X164443676Y-72564666D02*
X164538914Y-72659904D01*
X164538914Y-72659904D02*
X164586533Y-72755142D01*
X171250780Y-71032666D02*
X171298400Y-71080285D01*
X171298400Y-71080285D02*
X171346019Y-71223142D01*
X171346019Y-71223142D02*
X171346019Y-71318380D01*
X171346019Y-71318380D02*
X171298400Y-71461237D01*
X171298400Y-71461237D02*
X171203161Y-71556475D01*
X171203161Y-71556475D02*
X171107923Y-71604094D01*
X171107923Y-71604094D02*
X170917447Y-71651713D01*
X170917447Y-71651713D02*
X170774590Y-71651713D01*
X170774590Y-71651713D02*
X170584114Y-71604094D01*
X170584114Y-71604094D02*
X170488876Y-71556475D01*
X170488876Y-71556475D02*
X170393638Y-71461237D01*
X170393638Y-71461237D02*
X170346019Y-71318380D01*
X170346019Y-71318380D02*
X170346019Y-71223142D01*
X170346019Y-71223142D02*
X170393638Y-71080285D01*
X170393638Y-71080285D02*
X170441257Y-71032666D01*
X170346019Y-70127904D02*
X170346019Y-70604094D01*
X170346019Y-70604094D02*
X170822209Y-70651713D01*
X170822209Y-70651713D02*
X170774590Y-70604094D01*
X170774590Y-70604094D02*
X170726971Y-70508856D01*
X170726971Y-70508856D02*
X170726971Y-70270761D01*
X170726971Y-70270761D02*
X170774590Y-70175523D01*
X170774590Y-70175523D02*
X170822209Y-70127904D01*
X170822209Y-70127904D02*
X170917447Y-70080285D01*
X170917447Y-70080285D02*
X171155542Y-70080285D01*
X171155542Y-70080285D02*
X171250780Y-70127904D01*
X171250780Y-70127904D02*
X171298400Y-70175523D01*
X171298400Y-70175523D02*
X171346019Y-70270761D01*
X171346019Y-70270761D02*
X171346019Y-70508856D01*
X171346019Y-70508856D02*
X171298400Y-70604094D01*
X171298400Y-70604094D02*
X171250780Y-70651713D01*
X181229167Y-81591950D02*
X181372024Y-81639569D01*
X181372024Y-81639569D02*
X181610119Y-81639569D01*
X181610119Y-81639569D02*
X181705357Y-81591950D01*
X181705357Y-81591950D02*
X181752976Y-81544330D01*
X181752976Y-81544330D02*
X181800595Y-81449092D01*
X181800595Y-81449092D02*
X181800595Y-81353854D01*
X181800595Y-81353854D02*
X181752976Y-81258616D01*
X181752976Y-81258616D02*
X181705357Y-81210997D01*
X181705357Y-81210997D02*
X181610119Y-81163378D01*
X181610119Y-81163378D02*
X181419643Y-81115759D01*
X181419643Y-81115759D02*
X181324405Y-81068140D01*
X181324405Y-81068140D02*
X181276786Y-81020521D01*
X181276786Y-81020521D02*
X181229167Y-80925283D01*
X181229167Y-80925283D02*
X181229167Y-80830045D01*
X181229167Y-80830045D02*
X181276786Y-80734807D01*
X181276786Y-80734807D02*
X181324405Y-80687188D01*
X181324405Y-80687188D02*
X181419643Y-80639569D01*
X181419643Y-80639569D02*
X181657738Y-80639569D01*
X181657738Y-80639569D02*
X181800595Y-80687188D01*
X182133929Y-80639569D02*
X182372024Y-81639569D01*
X182372024Y-81639569D02*
X182562500Y-80925283D01*
X182562500Y-80925283D02*
X182752976Y-81639569D01*
X182752976Y-81639569D02*
X182991072Y-80639569D01*
X183324405Y-80734807D02*
X183372024Y-80687188D01*
X183372024Y-80687188D02*
X183467262Y-80639569D01*
X183467262Y-80639569D02*
X183705357Y-80639569D01*
X183705357Y-80639569D02*
X183800595Y-80687188D01*
X183800595Y-80687188D02*
X183848214Y-80734807D01*
X183848214Y-80734807D02*
X183895833Y-80830045D01*
X183895833Y-80830045D02*
X183895833Y-80925283D01*
X183895833Y-80925283D02*
X183848214Y-81068140D01*
X183848214Y-81068140D02*
X183276786Y-81639569D01*
X183276786Y-81639569D02*
X183895833Y-81639569D01*
X209233333Y-55059580D02*
X209185714Y-55107200D01*
X209185714Y-55107200D02*
X209042857Y-55154819D01*
X209042857Y-55154819D02*
X208947619Y-55154819D01*
X208947619Y-55154819D02*
X208804762Y-55107200D01*
X208804762Y-55107200D02*
X208709524Y-55011961D01*
X208709524Y-55011961D02*
X208661905Y-54916723D01*
X208661905Y-54916723D02*
X208614286Y-54726247D01*
X208614286Y-54726247D02*
X208614286Y-54583390D01*
X208614286Y-54583390D02*
X208661905Y-54392914D01*
X208661905Y-54392914D02*
X208709524Y-54297676D01*
X208709524Y-54297676D02*
X208804762Y-54202438D01*
X208804762Y-54202438D02*
X208947619Y-54154819D01*
X208947619Y-54154819D02*
X209042857Y-54154819D01*
X209042857Y-54154819D02*
X209185714Y-54202438D01*
X209185714Y-54202438D02*
X209233333Y-54250057D01*
X210090476Y-54488152D02*
X210090476Y-55154819D01*
X209852381Y-54107200D02*
X209614286Y-54821485D01*
X209614286Y-54821485D02*
X210233333Y-54821485D01*
X165954819Y-59838094D02*
X166764342Y-59838094D01*
X166764342Y-59838094D02*
X166859580Y-59790475D01*
X166859580Y-59790475D02*
X166907200Y-59742856D01*
X166907200Y-59742856D02*
X166954819Y-59647618D01*
X166954819Y-59647618D02*
X166954819Y-59457142D01*
X166954819Y-59457142D02*
X166907200Y-59361904D01*
X166907200Y-59361904D02*
X166859580Y-59314285D01*
X166859580Y-59314285D02*
X166764342Y-59266666D01*
X166764342Y-59266666D02*
X165954819Y-59266666D01*
X166907200Y-58838094D02*
X166954819Y-58695237D01*
X166954819Y-58695237D02*
X166954819Y-58457142D01*
X166954819Y-58457142D02*
X166907200Y-58361904D01*
X166907200Y-58361904D02*
X166859580Y-58314285D01*
X166859580Y-58314285D02*
X166764342Y-58266666D01*
X166764342Y-58266666D02*
X166669104Y-58266666D01*
X166669104Y-58266666D02*
X166573866Y-58314285D01*
X166573866Y-58314285D02*
X166526247Y-58361904D01*
X166526247Y-58361904D02*
X166478628Y-58457142D01*
X166478628Y-58457142D02*
X166431009Y-58647618D01*
X166431009Y-58647618D02*
X166383390Y-58742856D01*
X166383390Y-58742856D02*
X166335771Y-58790475D01*
X166335771Y-58790475D02*
X166240533Y-58838094D01*
X166240533Y-58838094D02*
X166145295Y-58838094D01*
X166145295Y-58838094D02*
X166050057Y-58790475D01*
X166050057Y-58790475D02*
X166002438Y-58742856D01*
X166002438Y-58742856D02*
X165954819Y-58647618D01*
X165954819Y-58647618D02*
X165954819Y-58409523D01*
X165954819Y-58409523D02*
X166002438Y-58266666D01*
X166431009Y-57504761D02*
X166478628Y-57361904D01*
X166478628Y-57361904D02*
X166526247Y-57314285D01*
X166526247Y-57314285D02*
X166621485Y-57266666D01*
X166621485Y-57266666D02*
X166764342Y-57266666D01*
X166764342Y-57266666D02*
X166859580Y-57314285D01*
X166859580Y-57314285D02*
X166907200Y-57361904D01*
X166907200Y-57361904D02*
X166954819Y-57457142D01*
X166954819Y-57457142D02*
X166954819Y-57838094D01*
X166954819Y-57838094D02*
X165954819Y-57838094D01*
X165954819Y-57838094D02*
X165954819Y-57504761D01*
X165954819Y-57504761D02*
X166002438Y-57409523D01*
X166002438Y-57409523D02*
X166050057Y-57361904D01*
X166050057Y-57361904D02*
X166145295Y-57314285D01*
X166145295Y-57314285D02*
X166240533Y-57314285D01*
X166240533Y-57314285D02*
X166335771Y-57361904D01*
X166335771Y-57361904D02*
X166383390Y-57409523D01*
X166383390Y-57409523D02*
X166431009Y-57504761D01*
X166431009Y-57504761D02*
X166431009Y-57838094D01*
X166954819Y-56314285D02*
X166954819Y-56885713D01*
X166954819Y-56599999D02*
X165954819Y-56599999D01*
X165954819Y-56599999D02*
X166097676Y-56695237D01*
X166097676Y-56695237D02*
X166192914Y-56790475D01*
X166192914Y-56790475D02*
X166240533Y-56885713D01*
X220178333Y-72082819D02*
X219845000Y-71606628D01*
X219606905Y-72082819D02*
X219606905Y-71082819D01*
X219606905Y-71082819D02*
X219987857Y-71082819D01*
X219987857Y-71082819D02*
X220083095Y-71130438D01*
X220083095Y-71130438D02*
X220130714Y-71178057D01*
X220130714Y-71178057D02*
X220178333Y-71273295D01*
X220178333Y-71273295D02*
X220178333Y-71416152D01*
X220178333Y-71416152D02*
X220130714Y-71511390D01*
X220130714Y-71511390D02*
X220083095Y-71559009D01*
X220083095Y-71559009D02*
X219987857Y-71606628D01*
X219987857Y-71606628D02*
X219606905Y-71606628D01*
X221035476Y-71416152D02*
X221035476Y-72082819D01*
X220797381Y-71035200D02*
X220559286Y-71749485D01*
X220559286Y-71749485D02*
X221178333Y-71749485D01*
D11*
%TO.C,R3*%
X217054186Y-73083750D02*
X217508314Y-73083750D01*
X217054186Y-74553750D02*
X217508314Y-74553750D01*
%TO.C,SW1*%
X155733750Y-82073750D02*
X169703750Y-82073750D01*
X155733750Y-96043750D02*
X155733750Y-82073750D01*
X169703750Y-82073750D02*
X169703750Y-96043750D01*
X169703750Y-96043750D02*
X155733750Y-96043750D01*
%TO.C,C6*%
X195077500Y-68117502D02*
X195077500Y-67594998D01*
X196547500Y-68117502D02*
X196547500Y-67594998D01*
%TO.C,C3*%
X192711400Y-63645148D02*
X192711400Y-64167652D01*
X194181400Y-63645148D02*
X194181400Y-64167652D01*
%TO.C,C9*%
X174829800Y-74022852D02*
X174829800Y-73500348D01*
X176299800Y-74022852D02*
X176299800Y-73500348D01*
%TO.C,C2*%
X195077500Y-64148752D02*
X195077500Y-63626248D01*
X196547500Y-64148752D02*
X196547500Y-63626248D01*
%TO.C,R2*%
X171350000Y-67447936D02*
X171350000Y-67902064D01*
X172820000Y-67447936D02*
X172820000Y-67902064D01*
%TO.C,R1*%
X173763000Y-67447936D02*
X173763000Y-67902064D01*
X175233000Y-67447936D02*
X175233000Y-67902064D01*
%TO.C,Y1*%
X185006400Y-61071600D02*
X197606400Y-61071600D01*
X197606400Y-55971600D02*
X185006400Y-55971600D01*
X197606400Y-61071600D02*
X197606400Y-55971600D01*
%TO.C,C7*%
X213333750Y-67282498D02*
X213333750Y-67805002D01*
X214803750Y-67282498D02*
X214803750Y-67805002D01*
%TO.C,C8*%
X172391400Y-73464748D02*
X172391400Y-73987252D01*
X173861400Y-73464748D02*
X173861400Y-73987252D01*
%TO.C,C1*%
X201744998Y-55852500D02*
X202267502Y-55852500D01*
X201744998Y-57322500D02*
X202267502Y-57322500D01*
%TO.C,J1*%
X186731600Y-77174400D02*
X186731600Y-69434400D01*
X189331600Y-74574400D02*
X189331600Y-77174400D01*
X189331600Y-77174400D02*
X186731600Y-77174400D01*
X191931600Y-69434400D02*
X186731600Y-69434400D01*
X191931600Y-74574400D02*
X189331600Y-74574400D01*
X191931600Y-74574400D02*
X191931600Y-69434400D01*
X191931600Y-75844400D02*
X191931600Y-77174400D01*
X191931600Y-77174400D02*
X190601600Y-77174400D01*
%TO.C,SW3*%
X200818750Y-82073750D02*
X214788750Y-82073750D01*
X200818750Y-96043750D02*
X200818750Y-82073750D01*
X214788750Y-82073750D02*
X214788750Y-96043750D01*
X214788750Y-96043750D02*
X200818750Y-96043750D01*
%TO.C,SW4*%
X220662500Y-82073750D02*
X234632500Y-82073750D01*
X220662500Y-96043750D02*
X220662500Y-82073750D01*
X234632500Y-82073750D02*
X234632500Y-96043750D01*
X234632500Y-96043750D02*
X220662500Y-96043750D01*
%TO.C,SW0*%
X215580000Y-59181250D02*
X215580000Y-62081250D01*
X215580000Y-59181250D02*
X216070000Y-58691250D01*
X215580000Y-62081250D02*
X216070000Y-62571250D01*
X217260000Y-57911250D02*
X219340000Y-57911250D01*
X217260000Y-63351250D02*
X219340000Y-63351250D01*
X221020000Y-59181250D02*
X220530000Y-58691250D01*
X221020000Y-59181250D02*
X221020000Y-62081250D01*
X221020000Y-62081250D02*
X220530000Y-62571250D01*
%TO.C,F1*%
X167365000Y-72332436D02*
X167365000Y-73536564D01*
X169185000Y-72332436D02*
X169185000Y-73536564D01*
%TO.C,C5*%
X170105400Y-73956852D02*
X170105400Y-73434348D01*
X171575400Y-73956852D02*
X171575400Y-73434348D01*
%TO.C,SW2*%
X175577500Y-82073750D02*
X189547500Y-82073750D01*
X175577500Y-96043750D02*
X175577500Y-82073750D01*
X189547500Y-82073750D02*
X189547500Y-96043750D01*
X189547500Y-96043750D02*
X175577500Y-96043750D01*
%TO.C,C4*%
X209723752Y-55852500D02*
X209201248Y-55852500D01*
X209723752Y-57322500D02*
X209201248Y-57322500D01*
%TO.C,USB1*%
X169590000Y-52390000D02*
X169590000Y-54340000D01*
X169590000Y-52390000D02*
X177410000Y-52390000D01*
X169590000Y-56560000D02*
X169590000Y-59790000D01*
X171390000Y-61710000D02*
X170310000Y-61710000D01*
X175610000Y-61710000D02*
X175610000Y-62140000D01*
X176690000Y-61710000D02*
X175610000Y-61710000D01*
X177410000Y-52390000D02*
X177410000Y-54340000D01*
X177410000Y-56560000D02*
X177410000Y-59790000D01*
D10*
%TO.C,U1*%
X200306250Y-59337500D02*
X200306250Y-59952500D01*
X200306250Y-59337500D02*
X200981250Y-59337500D01*
X200306250Y-69687500D02*
X200306250Y-69012500D01*
X200306250Y-69687500D02*
X200981250Y-69687500D01*
X210656250Y-59337500D02*
X209981250Y-59337500D01*
X210656250Y-59337500D02*
X210656250Y-60012500D01*
X210656250Y-69687500D02*
X209981250Y-69687500D01*
X210656250Y-69687500D02*
X210656250Y-69012500D01*
D11*
X199621250Y-59972500D02*
X199281250Y-59502500D01*
X199961250Y-59502500D01*
X199621250Y-59972500D01*
G36*
X199621250Y-59972500D02*
G01*
X199281250Y-59502500D01*
X199961250Y-59502500D01*
X199621250Y-59972500D01*
G37*
%TO.C,R4*%
X217508314Y-70702500D02*
X217054186Y-70702500D01*
X217508314Y-72172500D02*
X217054186Y-72172500D01*
%TD*%
M02*
