M48
; DRILL file {KiCad 8.0.6} date 2025-02-27T22:11:06+0530
; FORMAT={-:-/ absolute / inch / decimal}
; #@! TF.CreationDate,2025-02-27T22:11:06+05:30
; #@! TF.GenerationSoftware,Kicad,Pcbnew,8.0.6
; #@! TF.FileFunction,Plated,1,2,PTH
FMAT,2
INCH
; #@! TA.AperFunction,Plated,PTH,ViaDrill
T1C0.0118
; #@! TA.AperFunction,Plated,PTH,ComponentDrill
T2C0.0394
; #@! TA.AperFunction,Plated,PTH,ComponentDrill
T3C0.0591
%
G90
G05
T1
X6.474Y-2.898
X7.41Y-2.625
X7.53Y-2.622
X7.575Y-2.65
X7.59Y-3.018
X7.604Y-2.788
X7.708Y-2.418
X7.77Y-2.475
X7.7841Y-2.4468
X7.9628Y-2.788
X8.094Y-2.682
X8.128Y-2.686
X8.448Y-2.524
X8.554Y-2.756
T2
X7.404Y-2.786
X7.404Y-2.886
X7.404Y-2.986
X7.504Y-2.786
X7.504Y-2.886
X7.504Y-2.986
T3
X6.2562Y-3.4062
X6.5062Y-3.3062
X7.0375Y-3.4062
X7.2875Y-3.3062
X8.0312Y-3.4062
X8.2812Y-3.3062
X8.8125Y-3.4062
X9.0625Y-3.3062
M30
